<svg xmlns="http://www.w3.org/2000/svg" viewBox="0 0 987.84 424.16"><defs><style>.cls-1{fill:#231f20;}</style></defs><title>Asset 1</title><g id="Layer_2" data-name="Layer 2"><g id="Layer_1-2" data-name="Layer 1"><path class="cls-1" d="M28.19,347.05a4.1,4.1,0,0,0,.9.15,29.91,29.91,0,0,1,11.46-9.95Q46,334.69,54,336.8t11.16,6.63a53.16,53.16,0,0,1,8.59,18.09,46,46,0,0,1,1.21,4.67,132.56,132.56,0,0,1,6.18-12.06,29.64,29.64,0,0,1,10.7-11,18.65,18.65,0,0,1,11.76-2.19,18.36,18.36,0,0,1,10.85,5.35,35.52,35.52,0,0,1,9.35,17.94q.45,2.56.75,5.73c.2,2.11.33,3.87.38,5.28s.07,3.36.07,5.88v5.42a160.57,160.57,0,0,1-1,24q-.45,3.62-1.43,4.6c-.66.65-2.19,1.08-4.6,1.28-.71,0-2.39,0-5,.07a35.28,35.28,0,0,0-6.11.53c-2.31.51-3.56-.45-3.77-2.86a88.05,88.05,0,0,1-.75-10.25q-.15-9-2-24.12c0-.1,0-.35-.07-.75a6.29,6.29,0,0,1-.08-.83,3.33,3.33,0,0,0-.15-.76c-.1-.35-.18-.6-.23-.75s-.12-.4-.22-.75a2.81,2.81,0,0,0-.3-.76l-.38-.53a2.61,2.61,0,0,0-.53-.52,1.22,1.22,0,0,0-.75-.23,4.63,4.63,0,0,1-1.36-.15c-.3-.1-.68.1-1.13.6s-.75.83-.9,1a9.36,9.36,0,0,0-.83,1.13,9.25,9.25,0,0,1-.91,1.21q-5,6.78-8,19.29a71.67,71.67,0,0,0-1.81,11.91A7.58,7.58,0,0,1,81,413.37a7.41,7.41,0,0,1-4.44,1.81,60.27,60.27,0,0,1-15.38.15q-4.83-.6-6.63-5.88a13.89,13.89,0,0,1-.61-3.31q-.6-8.29-4.52-27.13a16.3,16.3,0,0,0-2.86-6.34q-2.56-3.62-5.43,0-3.76,4.53-5.88,15.08a153.28,153.28,0,0,0-2,20.95c0,2.21-.25,3.64-.75,4.3a10.84,10.84,0,0,1-3.77,2.33,17.58,17.58,0,0,1-5.8,1.21c-2.56.2-4,.35-4.45.45a25.19,25.19,0,0,1-3.92.45c-1.71.11-3,.21-3.77.31q-5.43.9-6.18-4.68Q.3,383.39.45,367.25a86.85,86.85,0,0,0-.3-10.7Q0,351.72,0,349.46c0-1.51.08-3.84.23-7s.22-5.5.22-7c.1-2.71.7-4.6,1.81-5.65s3-1.48,5.73-1.28c1,0,2.69.1,5,.3s4.09.33,5.2.38,2.81,0,5.12-.08a7.5,7.5,0,0,1,2.87.45,2.74,2.74,0,0,1,1.5,1.59,8.31,8.31,0,0,1,.46,3.09Z"/><path class="cls-1" d="M156.16,335.89q-10.69,0-14.62-9.95-2.41-6,3.77-12.66,3.62-3.76,10-4.37A15.78,15.78,0,0,1,167,312.53q6,5.43,4.07,12.66-2.11,8.44-9.05,9.95A24.29,24.29,0,0,1,156.16,335.89Zm16.43,77q.32,6.48-5.87,7.09-11.76,1-15.38,1.8c-2.71.51-4.42-.75-5.12-3.76a27.63,27.63,0,0,1-.83-4.83q-.22-2.55-.38-5.72c-.1-2.12-.2-3.72-.3-4.83v-9q.15-9.64-1.06-31.81-.15-3.46,0-9.5c0-2.11.35-3.61,1.06-4.52a8.82,8.82,0,0,1,3.92-2.41q5.73-2,15.67-2.26c2,0,3.42.38,4.22,1.13s1.31,2.14,1.51,4.14q.15,1.67.3,10.86.15,3.32.23,11.91t.23,13.19c.09,3.06.25,6.91.45,11.53s.45,8.84.75,12.66c.1.4.23,1.08.38,2A15.49,15.49,0,0,1,172.59,412.92Z"/><path class="cls-1" d="M218.12,337c.1,6.83.25,11.21.45,13.11l4.82-5.27a21.31,21.31,0,0,1,17-6.11q9.63.84,14.92,7.16,6.48,7.7,10,19.9,5.56,19.75,4.52,47.33,0,3.31-3.17,3.62Q255,418.36,248,416.24a6.59,6.59,0,0,1-2.86-1.36,7.21,7.21,0,0,1-.61-3.16q-.75-13.58-2.71-28.8a45.85,45.85,0,0,0-1.66-7.53,9.31,9.31,0,0,0-4.07-4.83q-4.52-2.25-7.68,1.51a17.48,17.48,0,0,0-3.62,6.78q-4.53,17-2.56,27.59v.9q.6,5.28-.83,7c-1,1.16-3.24,1.89-6.86,2.19q-2.56.3-7.16.75l-6.11.61q-5.88.6-6.63-5c-.1-1-.38-3-.83-6.1s-.73-5.08-.83-6-.35-3-.75-6-.63-5.08-.68-6-.23-3-.53-6a38.42,38.42,0,0,1-.3-6,57.89,57.89,0,0,0,0-6.11,91.91,91.91,0,0,0-.38-10.32q-.53-6.86.38-22.39.3-3.77,1.73-5.05c1-.85,2.74-1.28,5.36-1.28q1.65,0,7.08.45a48.62,48.62,0,0,0,8.44.16c1.71-.21,2.94.07,3.7.82S218.12,335,218.12,337Z"/><path class="cls-1" d="M346.24,410.06a6.4,6.4,0,0,0,.31-2,10.61,10.61,0,0,0-1.51.07,11.93,11.93,0,0,0-1.36.38,4.91,4.91,0,0,1-1.2.3,37.17,37.17,0,0,1-11.16.91q-15.07-1.51-18.69-2.26a35.49,35.49,0,0,1-14.17-6.79,32.06,32.06,0,0,1-11.61-17.64,46.7,46.7,0,0,1-.9-9.34,43.91,43.91,0,0,1,3.16-17.64,33,33,0,0,1,9.8-14q6.18-5,17.19-6.33A35.64,35.64,0,0,1,337.5,340q9.19,5,13.12,10.25c.09.11,1,1,2.71,2.72a54.75,54.75,0,0,0,.75-11q0-1.8-.22-12.13t.07-12q.15-3.78-.07-11t-.08-10.4a27.62,27.62,0,0,1,.61-6.94,5.52,5.52,0,0,1,5.57-4.37,38.44,38.44,0,0,1,8,.76,51.58,51.58,0,0,0,7.69.9c2,0,3.39.3,4.14.91a7.22,7.22,0,0,1,1.89,3.76c.3,1.61.5,2.92.6,3.92q.6,14.18.3,17.64a83.61,83.61,0,0,0,.08,10.55q.38,6.95.37,8.29.15,12.36-.9,31.81-1.67,26.69-2.56,36.93-.3,1.81-.68,7.84t-.83,9.35q-.6,4.51-2.18,5.72c-1.06.81-3.09.91-6.11.3q-9.79-1.8-18.39-3.91-5.88-1.37-5.43-7.69a7.71,7.71,0,0,1,.15-1.13A9.37,9.37,0,0,0,346.24,410.06Zm-35-49.29a16.64,16.64,0,0,0-4.67,12.06v2.11a14,14,0,0,0,2.79,7,10.42,10.42,0,0,0,5.65,4,11.68,11.68,0,0,0,7.39-.3,13.58,13.58,0,0,0,6.18-4.83,16.13,16.13,0,0,0,2.56-15.37q-2.26-6.93-8.52-8.37T311.27,360.77Z"/><path class="cls-1" d="M473.32,316.15a7.94,7.94,0,0,1,0,3.77,5.9,5.9,0,0,1-1.66,2.63,7.91,7.91,0,0,1-3.32,1.74q-1.5.45-12.36,5c-2,.81-3.57.35-4.67-1.36A46.27,46.27,0,0,0,446,321q-9.64-9.8-13.71,3a44.69,44.69,0,0,0-2,11.76v11.31h-.31q1.06,13.41,1.06,14.92c.1,2,1.15,3,3.17,2.86.9-.09,2.26-.15,4.07-.15s3.21,0,4.22-.15a3.75,3.75,0,0,1,3.61,1.66,9,9,0,0,1,.76,8.29c-.61,1.51-2,2.37-4.22,2.57q-4.83.45-7.69.6c-1.51.1-2.16,1-2,2.56q1.95,10.86,4.52,27.59a37,37,0,0,1,.61,5.57c-.11,2.72-1.41,4.13-3.92,4.23q-4.08,0-12.52.9c-5.62.6-9.9.9-12.81.9a3.82,3.82,0,0,1-2.56-.67,3.7,3.7,0,0,1-.91-2.49q-1.2-11.31-1.5-17.94-.15-3.62-.91-14.7t-.75-17.11c0-4.22.15-8.23.45-12.06.1-1.3.15-3.18.15-5.65s.05-4.29.15-5.5a175.36,175.36,0,0,1,3.32-22.91,70.86,70.86,0,0,1,8-21.26q9-15.83,26.53-16.28,11.61-.15,22,10.1Q471.2,301.22,473.32,316.15Z"/><path class="cls-1" d="M524.57,405.54c-.51.5-1.68,1.91-3.54,4.22a18.06,18.06,0,0,1-5,4.67A61.92,61.92,0,0,1,505.73,419q-10.11,2.71-17.64-5-2.56-2.57-4.07-4.3a43.55,43.55,0,0,1-3.32-4.45,22,22,0,0,1-2.71-5.57A91.9,91.9,0,0,1,474.67,387q-2.42-12.21-2-30.44c.1-2.21.43-5.36,1-9.43s.88-6.75,1-8.06q.3-4.06,4.83-4.37,11.61-1.05,17.63-1.36c2.31-.1,4,.51,5.13,1.81s1.56,3.22,1.36,5.73c-.21,1.1-.48,2.94-.83,5.5s-.63,4.82-.83,6.78a54.5,54.5,0,0,0-.3,5.51,101.59,101.59,0,0,0,1.8,23.21c.1.5.28,1.43.53,2.79s.5,2.54.76,3.54.52,2,.82,2.86c.81,1.91,1.64,2.94,2.49,3.1s1.94-.53,3.24-2a29,29,0,0,0,5.28-10.7,85.42,85.42,0,0,0,1.66-8.52q.6-4.29,1.28-11t.83-8.67c.2-1.51.47-3.94.83-7.31s.62-5.9.83-7.61c.3-2.21.82-3.7,1.58-4.45s2.23-1.08,4.45-1c1.4,0,3.49-.1,6.25-.3s4.8-.3,6.11-.3q6.18.15,7.38,5.88a26.52,26.52,0,0,1,.61,6c.09,5.53.15,9.55.15,12.06s-.08,6.54-.23,12.06-.28,9.55-.38,12.06q-.45,27.43-.3,28.64a14.57,14.57,0,0,1-1.13,6.26,7,7,0,0,1-3,3.31,11.84,11.84,0,0,1-4.9,1.13l-3.09.46a26.49,26.49,0,0,1-3.24.3q-7.69.3-7.84-7.54Q524.42,412.62,524.57,405.54Z"/><path class="cls-1" d="M594.06,287.2q-.15,9.36.52,26.31t.68,23.59v45.67q.15,1.67.91,26.68c.1,2.22.15,3.37.15,3.47-.1,2.11-.63,3.6-1.59,4.45a6,6,0,0,1-4.44,1.13q-5.28-.45-15.68,1.66c-1.91.4-3.29.27-4.14-.38s-1.34-2-1.44-4q-.15-1.67-.45-11.16-.6-25.17-.6-25.32-1.66-37.08-1.66-62,0-2.72-.22-13t.07-13q.15-5.26,1.66-6.93c1-1.1,3.21-1.86,6.63-2.26q.6-.15,10.7-1.66l2.11-.15a9.69,9.69,0,0,1,4.07.45,3.94,3.94,0,0,1,2.19,2.11A9.34,9.34,0,0,1,594.06,287.2Z"/><path class="cls-1" d="M704.85,385a4.82,4.82,0,0,1-.68-.9,5.56,5.56,0,0,0-.75-1,6.41,6.41,0,0,1-.76-.9,3.43,3.43,0,0,0-1-.91,9.44,9.44,0,0,0-1.35-.68q.45,4.53,3.16,19.9a53.26,53.26,0,0,0,2.26,8.89q2.87,7.4-5,9.35-2.26.6-13.42,2.86-5.13.91-7.23,1.21a6,6,0,0,1-2.41-.15,3.58,3.58,0,0,1-1.59-1.06,5.88,5.88,0,0,1-1.13-2.11,19.33,19.33,0,0,1-1-6.33q-.47-7.83-2.11-28.19t-2.12-31.5q-.75-19.89,0-35.57.15-2.86,0-11.46A80.19,80.19,0,0,1,670,295q.6-4.07.9-5.42a6.42,6.42,0,0,1,1.73-3.25,5.11,5.11,0,0,1,3.4-1,55.64,55.64,0,0,0,14-1.66,7,7,0,0,1,4.07,0,5.84,5.84,0,0,1,2.94,2.18,7.69,7.69,0,0,1,1.28,4,94.14,94.14,0,0,1,.3,12.06q0,6-.15,20.87t-.15,22.84c0,.2.2,2.47.6,6.79a6.2,6.2,0,0,0,1.51-.53,7.06,7.06,0,0,0,1.13-.68c.25-.2.62-.55,1.13-1.06l1-1,2.72-2.64c1.5-1.46,2.51-2.41,3-2.86l2.79-2.57c1.36-1.25,2.39-2.16,3.09-2.71s1.68-1.38,2.94-2.49,2.31-2,3.17-2.63,1.85-1.41,3-2.27,2.28-1.63,3.39-2.33l3.32-2.11q3.32-2.12,5.5-1.66t4,3.77c.51.9,1.16,2,2,3.16s1.49,2.29,2,3.24l1.88,3.25a25.54,25.54,0,0,1,1.66,3.31,27.85,27.85,0,0,1,1.13,3.17,7.46,7.46,0,0,1,.3,2.48,8.15,8.15,0,0,1-.37,2,4.91,4.91,0,0,1-1.21,1.81c-.6.6-1.16,1.13-1.66,1.58s-1.2,1-2.11,1.73q-1.05.76-13.87,9.2a2.79,2.79,0,0,1-.52.38,1.35,1.35,0,0,1-.68.22c-1.61,1.31-2.47,2.24-2.57,2.79s.51,1.64,1.81,3.24q.76.92,19.15,23.22a13.75,13.75,0,0,1,2.41,4.07,6,6,0,0,1,.23,3.31,5.73,5.73,0,0,1-2,2.72q-8.14,6.18-12.36,9.34c-2.31,1.61-4.2,2.32-5.65,2.11s-3.14-1.35-5-3.46q-4.38-5-12-15.23T704.85,385Z"/><path class="cls-1" d="M779.92,335.89q-10.71,0-14.63-9.95-2.41-6,3.77-12.66,3.62-3.76,10-4.37a15.77,15.77,0,0,1,11.68,3.62q6,5.43,4.07,12.66-2.12,8.44-9.05,9.95A24.27,24.27,0,0,1,779.92,335.89Zm16.43,77q.3,6.48-5.88,7.09-11.76,1-15.38,1.8c-2.71.51-4.42-.75-5.12-3.76a27.63,27.63,0,0,1-.83-4.83q-.23-2.55-.38-5.72c-.1-2.12-.2-3.72-.3-4.83v-9q.15-9.64-1.06-31.81-.15-3.46,0-9.5a7.51,7.51,0,0,1,1.06-4.52,8.82,8.82,0,0,1,3.92-2.41q5.73-2,15.68-2.26c2,0,3.41.38,4.22,1.13s1.3,2.14,1.5,4.14q.15,1.67.3,10.86.15,3.32.23,11.91t.23,13.19c.1,3.06.25,6.91.45,11.53s.45,8.84.75,12.66c.1.4.23,1.08.38,2A15.71,15.71,0,0,1,796.35,412.92Z"/><path class="cls-1" d="M874.13,410.06a6.59,6.59,0,0,0,.3-2,10.61,10.61,0,0,0-1.51.07,12.53,12.53,0,0,0-1.36.38,4.91,4.91,0,0,1-1.2.3,37.17,37.17,0,0,1-11.16.91q-15.08-1.51-18.69-2.26a35.49,35.49,0,0,1-14.17-6.79,32.06,32.06,0,0,1-11.61-17.64,46.7,46.7,0,0,1-.9-9.34A43.92,43.92,0,0,1,817,356.09a33,33,0,0,1,9.79-14q6.18-5,17.19-6.33a35.64,35.64,0,0,1,21.4,4.22q9.2,5,13.12,10.25l2.71,2.72a54.75,54.75,0,0,0,.75-11q0-1.8-.22-12.13t.07-12q.15-3.78-.07-11t-.08-10.4a27.62,27.62,0,0,1,.61-6.94,5.52,5.52,0,0,1,5.57-4.37,38.44,38.44,0,0,1,8,.76,51.58,51.58,0,0,0,7.69.9c2,0,3.39.3,4.15.91a7.22,7.22,0,0,1,1.88,3.76c.3,1.61.5,2.92.6,3.92q.6,14.18.3,17.64a83.61,83.61,0,0,0,.08,10.55q.38,6.95.38,8.29.15,12.36-.91,31.81-1.65,26.69-2.56,36.93-.3,1.81-.68,7.84t-.83,9.35q-.6,4.51-2.18,5.72c-1.06.81-3.09.91-6.11.3q-9.79-1.8-18.39-3.91-5.88-1.37-5.43-7.69A6.86,6.86,0,0,1,874,411C874.07,410.49,874.13,410.16,874.13,410.06Zm-35-49.29a16.64,16.64,0,0,0-4.67,12.06v2.11a14,14,0,0,0,2.79,7,10.42,10.42,0,0,0,5.65,4,11.68,11.68,0,0,0,7.39-.3,13.58,13.58,0,0,0,6.18-4.83,16.11,16.11,0,0,0,2.56-15.37q-2.26-6.93-8.51-8.37T839.15,360.77Z"/><path class="cls-1" d="M982.21,409.61a38.89,38.89,0,0,1-9.65,7.61,19.48,19.48,0,0,1-9,2.79,60,60,0,0,1-19.75-3.47,58.91,58.91,0,0,1-15.83-9.2q-4.22-3.31-1.81-7.53a38.47,38.47,0,0,1,13.42-14.32,4,4,0,0,1,5,.15q8.15,5.28,12.51,6.78,5.73,2,6.64-.6a10.26,10.26,0,0,0,.22-1.21,2.49,2.49,0,0,0-.15-1.2c-.15-.4-.28-.71-.38-.91a5,5,0,0,0-.67-.9c-.36-.4-.61-.68-.76-.83l-.83-.83A33.57,33.57,0,0,0,949,378.55a54.84,54.84,0,0,1-12.21-6.18,27.8,27.8,0,0,1-9.64-12.28,24.89,24.89,0,0,1-1.36-15,19.33,19.33,0,0,1,3.17-6.93q8.73-12.68,22.31-15.68,12.2-2.72,21.55,5.88,8.45,7.68,13.27,20.8a3.47,3.47,0,0,1-1.66,4.37q-2.12,1.35-11.91,5.88-2.71,1.35-4.52-1.66a24.16,24.16,0,0,0-8.29-8.74q-4.38-2.56-8,.3a5.37,5.37,0,0,0-1.66,6.93,9.86,9.86,0,0,0,4.52,4.53q4.38,2.57,9,4.82a62.51,62.51,0,0,1,16.88,12.51q6.18,6.48,7.23,17.94Q988.4,403.12,982.21,409.61Z"/><path class="cls-1" d="M449.36,149.66s.57,6.58,3.43,6.16a7.06,7.06,0,0,0-2.41-7.09s6.86,5.63,8.66,3.32c0,0,0-3.51-7.55-5.17,0,0-1-5.25-5.31-6.93,0,0-1.08,2.66,2.44,6.65,0,0-7.41-3-8.43-2.59s1.38,3.89,6.94,4.49c0,0-4.23,5.23-5.35,5.69S444.91,156.42,449.36,149.66Z"/><path class="cls-1" d="M509.94,137.62s6.63.13,6.51-2.78a7.09,7.09,0,0,0-7.33,1.66s6.34-6.25,4.24-8.3c0,0-3.5-.41-6,7,0,0-5.34.44-7.48,4.58,0,0,2.55,1.35,6.9-1.74,0,0-3.74,7.08-3.48,8.14s4-1,5.22-6.45c0,0,4.77,4.78,5.11,5.95S516.22,142.77,509.94,137.62Z"/><path class="cls-1" d="M461.41,81.86a12.05,12.05,0,0,0-6,10,4.62,4.62,0,0,0,.18,1.53,5.69,5.69,0,0,0,2.1,2.45c1.59,1.27,3.29,2.59,5.33,2.8,2.47.26,4.81-1.2,6.57-2.93a8.12,8.12,0,0,0,2.1-3,9.63,9.63,0,0,0,.39-2.57c.13-2.45,0-5.31-2.05-6.77a8.19,8.19,0,0,0-2.32-1c-2.17-.68-4.73-1.32-6.58,0"/><path class="cls-1" d="M430.21,136s-3.31-3.33-7.43-3.71c0,0,.82,3.21,6,4.94,0,0-5-.4-7.05,3.88a18.64,18.64,0,0,0,8.1-2.64,11.82,11.82,0,0,0-1.52,9.71s2.76-2.36,2.57-9.34c0,0,3.41,4.33,8.1,3.74,0,0,.63-2.07-6.26-4.48,0,0,7.25-2.84,7.46-5.62,0,0-6.07.3-8.58,3.08,0,0,2-6.36-.78-9.82C430.77,125.78,427.8,128,430.21,136Z"/><path class="cls-1" d="M484.11,146.53s-4.55-1.16-8.28.63c0,0,2.35,2.33,7.64,1.19,0,0-4.52,2.23-4.07,6.94a18.59,18.59,0,0,0,5.6-6.41,11.85,11.85,0,0,0,3.67,9.12s1.16-3.44-2.57-9.34c0,0,5.15,2,8.87-.94,0,0-.52-2.1-7.68-.64,0,0,4.78-6.15,3.54-8.65,0,0-5.06,3.37-5.79,7,0,0-1.54-6.49-5.7-8C479.34,137.44,477.9,140.82,484.11,146.53Z"/><path class="cls-1" d="M430.15,103.92s-4.82-4.45-4.2-8.4c0,0,2.86.49,5.6,8,0,0,1.13-6.92,5-7.85,0,0-1.43,6.18-2.66,7.85a10.71,10.71,0,0,1,7.7,1.35s.45,1.49-8.44,1.12c0,0,4.22,2.49,5.84,6.34,0,0-3.42-.17-7.47-5.66,0,0,.83,5.68-.6,7.65,0,0-1.23-1.35-1.48-6.73,0,0-7.47-1.11-8.27-3.15C421.2,104.41,428.3,103.79,430.15,103.92Z"/><path class="cls-1" d="M568,37.75s4.74-1.8,7.26,0c0,0-1.33,1.8-7.45,1.11,0,0,4.39,3.18,3.69,6.19,0,0-3.78-3.12-4.5-4.55a8.33,8.33,0,0,1-3.6,4.86s-1.18-.2,2.14-6.22a12.24,12.24,0,0,1-6.4,1.85s1.3-2.31,6.5-3.21c0,0-4.22-1.4-5.09-3.06,0,0,1.36-.39,5.16,1.3,0,0,3.35-4.78,5-4.63C570.7,31.39,568.67,36.51,568,37.75Z"/><path class="cls-1" d="M404.83,120.59s1.05-5.8,3.89-7.22c0,0-1.55,7.9,0,8.52,0,0,5.25.19,7,1.85a19.13,19.13,0,0,1-8.83.44s5.11,3.78,5.8,7.14c0,0-3.95-.35-6.61-5.85,0,0,.36,9.33.12,10.87,0,0-4-4.14-2.22-11.67l.19-.86s-6.61.12-9.14-2.14c0,0,2.84-1.36,7.8-.09l.47.13s-5.31-5-5.53-8.8C397.75,112.91,400.75,112.81,404.83,120.59Z"/><path class="cls-1" d="M408.72,121.89a138.83,138.83,0,0,1,47.81-27.42s-1.66-1.58-.59-2.83c0,0-19.55,6.29-49.07,28.65A6.49,6.49,0,0,0,408.72,121.89Z"/><path class="cls-1" d="M402.91,98.3s6.8-11.61,53.62-7.41l.53-2.56s-41.3-4.49-54.76,7.74Z"/><path class="cls-1" d="M399.82,98.79s-5.06-5.68-1.72-9c0,0,1.35,5.56,2.59,5.44,0,0,.63-6.41,3.53-7.28,0,0-.57,5.92-1.92,8.14l.61,2.23s6.21-2.1,9.53.55c0,0-2.31.94-9.28,1h-.87s2.34,6.32,4.07,6.35c0,0-4.93.1-5.18-6,0,0-5.38,4.15-8.19,1.71A31.08,31.08,0,0,1,399.82,98.79Z"/><path class="cls-1" d="M404,67.66s3.57-9.13,9-4.75c0,0-5.81.89-5.65,4.24L407.11,69s5.56,3.21,5.81,7.17c0,0-6.18-3.22-8.52-6.18,0,0,2.76,9-.78,10.85,0,0-2.31-7.27-.95-10.23,0,0-7.34,6.25-11.45,5.9,0,0,5.6-6.42,9.45-7,0,0-9.54,0-10.58-1.14,0,0,8.2-3.31,11.59,0,0,0-3.18-6.47-2.39-10.34A19.86,19.86,0,0,1,404,67.66Z"/><path class="cls-1" d="M441,31.19s5.41,2.36,6.14,5.46c0,0-7.34-3.33-8.3-2,0,0-1.39,5.07-3.41,6.37a19,19,0,0,1,1.62-8.7s-4.86,4.11-8.29,4c0,0,1.25-3.76,7.21-5.08,0,0-9.15-1.8-10.6-2.39,0,0,4.95-2.91,11.86.53l.8.38s1.41-6.45,4.18-8.4c0,0,.68,3.08-1.7,7.61l-.23.43s6.07-4,9.83-3.35C450.1,26.08,449.5,29,441,31.19Z"/><path class="cls-1" d="M472.53,21.67s-6.09.67-7.54,3.73c0,0,3.18.85,7.81-1.93,0,0,.54,6.76,0,7.87,0,0,1.93-1.64,2.71-7.86,0,0,4.95,2.22,8,.69,0,0-1.11-2.09-7.6-2.46,0,0,5.83-1.5,6.62-5.8,0,0-6.16,2.09-7.36,4.87,0,0,2.24-5.06.79-8.46a12.52,12.52,0,0,0-2.46,8.46s-1.85-4.63-6.81-5C466.73,15.78,467.54,18.76,472.53,21.67Z"/><path class="cls-1" d="M595,6.86s-3.65-3.58-6.4-2.9c0,0,1.14,2.5,5.38,4,0,0-4.08,3.92-5.06,4.18,0,0,2.08.38,6.5-2.4,0,0,1.18,4.37,3.79,5.53,0,0,.76-1.82-2.43-6.21,0,0,4,3,7.24,1.22,0,0-4.6-2.87-7-2.18,0,0,4.44-1.23,5.88-4A10.42,10.42,0,0,0,596.08,7a7,7,0,0,0-.37-7S594.21,2.1,595,6.86Z"/><path class="cls-1" d="M406.12,69s11.09-2.89,50.94,19.31l1.47-2.42s-41-20.1-52.78-18.62Z"/><path class="cls-1" d="M417.33,46.13s37.72,33.75,40.93,39.32l1.29-2.06S423.82,47,419.92,44.94,417.33,46.13,417.33,46.13Z"/><path class="cls-1" d="M435.88,61.5a26,26,0,0,1,1.62-2.13l4.23-5.17a2.48,2.48,0,0,1,.78-.7.81.81,0,0,1,1,.17c.27.38,0,.91-.25,1.3-1.86,2.81-3.73,5.62-5.83,8.24a13.25,13.25,0,0,1,9.36-2.14,2.63,2.63,0,0,1-1.19,2,5.88,5.88,0,0,1-2.27.88,16.85,16.85,0,0,1-4.65.32,20.28,20.28,0,0,1-.75,9.12.38.38,0,0,1-.1.2.4.4,0,0,1-.32.08,1.73,1.73,0,0,1-1.35-1.18,5,5,0,0,1-.23-1.86l0-6.65c-2.61,2.63-5.37,5.35-8.92,6.42a.5.5,0,0,1-.27,0,.36.36,0,0,1-.22-.18,1.3,1.3,0,0,1,0-1.28,3.36,3.36,0,0,1,.87-1A31.15,31.15,0,0,1,430,66.06l4.76-3.25a25.58,25.58,0,0,1-4.11-1.06c-2.1-.67-4.31-1.4-5.77-3a2,2,0,0,1,1.76-.53,17.74,17.74,0,0,1,8.86,2.88,13.48,13.48,0,0,1-1.6-8c.08-.65.34-1.43,1-1.5a1,1,0,0,1,1,.55,2.92,2.92,0,0,1,.3,1.13A28.12,28.12,0,0,1,436,60.8"/><path class="cls-1" d="M412.51,44.74l-8.23-3.22c-.31-.12-.68-.41-.52-.69a.55.55,0,0,1,.19-.18,5.43,5.43,0,0,1,4.68-.3,16.53,16.53,0,0,1,4.14,2.49c-.26-3.15-2.83-5.87-2.67-9,1.41.24,2.19,1.74,2.73,3.07.78,1.91,1.5,3.85,2.16,5.8a33.1,33.1,0,0,1,2.93-6.12A11,11,0,0,1,423,32.2a60.39,60.39,0,0,1-6.48,10.7,90.44,90.44,0,0,1,11,1.76c.42.1.94.32.91.75s-.62.6-1.07.61a72.59,72.59,0,0,1-10.11-.46c2.14,2.75,1.94,6.59,1.63,10.06a26.19,26.19,0,0,1-4.62-10,75.5,75.5,0,0,0-7,6.07,3.81,3.81,0,0,1-2.48,1.51c-.14-1.83,1.19-3.43,2.54-4.68a31.82,31.82,0,0,1,4.91-3.74"/><path class="cls-1" d="M465.84,82.11a115.34,115.34,0,0,1-1.37-16.8,87.51,87.51,0,0,1,.77-9.42,119.61,119.61,0,0,1,7-29c.55-1.39,1-3.32-.11-4.18a109.82,109.82,0,0,0-9,57.93,3.54,3.54,0,0,0,.63,2,1,1,0,0,0,1.63-.08"/><path class="cls-1" d="M439.07,33.77c1.92,6.95,5.78,13.17,9,19.64C453,63.45,456.35,74.26,462,84c.66-.53.38-1.58,0-2.36q-6.17-13.95-12.34-27.9l-7.17-16.22A13.13,13.13,0,0,0,439.72,33"/><path class="cls-1" d="M492.41,116.71a22,22,0,0,1,1.38-1.8l3.58-4.38a2,2,0,0,1,.66-.59.68.68,0,0,1,.82.14c.23.33,0,.77-.21,1.1-1.58,2.38-3.16,4.76-4.94,7a11.18,11.18,0,0,1,7.93-1.81,2.27,2.27,0,0,1-1,1.73,5.29,5.29,0,0,1-1.92.74,14.51,14.51,0,0,1-3.94.27,17.17,17.17,0,0,1-.64,7.73.3.3,0,0,1-.08.16.34.34,0,0,1-.28.07,1.47,1.47,0,0,1-1.14-1,4.35,4.35,0,0,1-.19-1.57l0-5.63c-2.21,2.22-4.55,4.52-7.55,5.43a.44.44,0,0,1-.23,0,.37.37,0,0,1-.19-.16,1.12,1.12,0,0,1,0-1.08,2.62,2.62,0,0,1,.74-.85,25.41,25.41,0,0,1,2.22-1.64l4-2.75a22,22,0,0,1-3.48-.9,10.52,10.52,0,0,1-4.89-2.58,1.7,1.7,0,0,1,1.49-.45,15,15,0,0,1,7.51,2.44,11.36,11.36,0,0,1-1.36-6.81c.07-.55.29-1.21.84-1.27a.87.87,0,0,1,.81.47,2.4,2.4,0,0,1,.26,1,23.54,23.54,0,0,1-.14,6.44"/><path class="cls-1" d="M521.13,119.44s-5.9,0-7.79-2.57c0,0,8,.14,8.39-1.49,0,0-.74-5.2.6-7.2a19.11,19.11,0,0,1,2,8.62s2.83-5.7,6-7c0,0,.35,4-4.6,7.53,0,0,9.12-2,10.68-2,0,0-3.39,4.64-11.1,4.22l-.89,0s1.28,6.49-.5,9.38c0,0-1.84-2.56-1.46-7.67,0-.16,0-.32,0-.49,0,0-4,6.11-7.7,7C514.8,127.75,514.18,124.81,521.13,119.44Z"/><path class="cls-1" d="M529.69,35.08s1.74,6.18,5.16,7.15c0,0,.32-3.43-3.35-7.74,0,0,6.9-1.72,8.13-1.4,0,0-2-1.71-8.59-1.44,0,0,1.44-5.5-.67-8.39,0,0-2,1.52-1.23,8.28,0,0-2.55-5.76-7.13-5.84,0,0,3.22,6,6.3,6.77,0,0-5.61-1.44-8.88.64a13.08,13.08,0,0,0,9.17,1.08s-4.47,2.71-4,7.9C524.6,42.09,527.55,40.74,529.69,35.08Z"/><path class="cls-1" d="M538.26,71.86s-3.31-3.33-7.43-3.7c0,0,.82,3.2,5.95,4.93,0,0-5-.4-7,3.88a18.49,18.49,0,0,0,8.1-2.64A11.86,11.86,0,0,0,536.3,84s2.76-2.36,2.58-9.34c0,0,3.41,4.33,8.1,3.74,0,0,.63-2.07-6.27-4.48,0,0,7.25-2.84,7.47-5.62,0,0-6.07.31-8.58,3.09,0,0,2-6.37-.78-9.82C538.82,61.61,535.85,63.77,538.26,71.86Z"/><path class="cls-1" d="M466.16,97.19s13.71,26.18,16.55,43.73l2.71,6.13s-2.15-20.46-10.49-36.77L466.59,94Z"/><path class="cls-1" d="M470.49,93s35.27,8.67,50.8,25.52l1-3s-18-15.94-51.76-24.21Z"/><path class="cls-1" d="M493.83,120.78s12,13.22,12.73,15.07l2.22-.25s-9.39-12.64-14-16.51Z"/><path class="cls-1" d="M467.52,95.73s22.78,20.93,23.92,22c0,0,13.06,8.22-21.85-22.73l-1,.52"/><path class="cls-1" d="M547.72,40.39c-2.24,11-6.92,21.32-8.7,32.36a10.1,10.1,0,0,0,2.25-3.84,175.1,175.1,0,0,0,8.07-26.2,2.91,2.91,0,0,0,0-1.82,1,1,0,0,0-1.5-.54"/><path class="cls-1" d="M556.71,15.65s9.27,15.94,8,21l2.1.87s.74-6.79-7.91-22.24A1.42,1.42,0,0,0,556.71,15.65Z"/><path class="cls-1" d="M485.68,66S517,31.48,528.6,34.19c0,0-12.35,6.42-19,11.79,0,0-19.85,17.88-22.15,21.82C487.43,67.8,484.14,68,485.68,66Z"/><path class="cls-1" d="M594.76,8.86s-6.18,8.31-5.19,17.74c0,0,1.24,1.65,1.85-3.78s3.25-11.3,4-13.06S594.76,8.86,594.76,8.86Z"/><path class="cls-1" d="M460.24,97c1,5.44-1.2,10.9-1.91,16.38-.21,1.6-.29,3.21-.54,4.81s-.62,2.9-1,4.34l-2.61,10a69.9,69.9,0,0,1-2.9,9.29,20.09,20.09,0,0,0-1.86,5.52c-.05.49,0,1.12.51,1.27s.88-.29,1.14-.69a26.44,26.44,0,0,0,2.73-6.23c.57-1.68,1.14-3.36,1.68-5a167.56,167.56,0,0,0,7.58-38.84,1.78,1.78,0,0,0-.09-.89,1.24,1.24,0,0,0-1.57-.48,3.51,3.51,0,0,0-1.36,1.16"/><path class="cls-1" d="M431.12,135.4a12.58,12.58,0,0,1,2.3-5.63q7.24-11.63,15-22.88c1-1.48,2.05-3,3.16-4.37a95.29,95.29,0,0,1,7.18-8,1.06,1.06,0,0,1,.33-.27c.48-.23,1,.36,1,.93a2.66,2.66,0,0,1-.73,1.49c-10,12.75-18.52,26.76-27.9,40.06a10.1,10.1,0,0,1,.45-5.47"/><path class="cls-1" d="M461.88,237.91l.79,0c.56,0,1.12,0,1.68-.07,3-23.91,5.3-40.53,1.81-140.61l-3.09.53S470.59,178.74,461.88,237.91Z"/></g></g></svg>