<svg id="Layer_1" data-name="Layer 1" xmlns="http://www.w3.org/2000/svg" viewBox="0 0 1080 1080"><defs><style>.cls-1{fill:#231f20;}</style></defs><title>Mindful Kids Logos</title><path class="cls-1" d="M81.07,526.7a8.16,8.16,0,0,0,1.59.75c5.65-7.15,12.37-12.08,20.15-14.66,6.36-2.08,14.23-.88,23.6,3.73s15.9,10.29,19.62,17.24a145.63,145.63,0,0,1,15.11,40q1.32,5.16,2.12,9.88c5.47-12.45,9.1-20.51,10.87-23.45,5.12-9.74,11.4-17,18.82-21.7A27.57,27.57,0,0,1,213.63,535q11.15,2.32,19.09,12.34c8.13,10.23,13.61,23.11,16.44,38.41q.79,5.36,1.33,11.87c.35,4.33.57,7.91.66,10.77s.13,6.81.13,11.83V631c.35,17.8-.27,32.9-1.85,45.69-.53,4.45-1.38,7.23-2.52,8.42s-3.85,2-8.09,2.27c-1.24,0-4.2,0-8.88-.08a66.27,66.27,0,0,0-10.74.48c-4.07.68-6.27-1.2-6.63-5.61a170.32,170.32,0,0,1-1.32-19c-.18-11.32-1.33-26.72-3.45-47,0-.2-.05-.71-.13-1.52s-.13-1.37-.13-1.67a8.35,8.35,0,0,0-.27-1.54c-.18-.71-.31-1.23-.4-1.54s-.22-.82-.4-1.55a6.94,6.94,0,0,0-.52-1.56c-.18-.32-.4-.69-.67-1.12a5.66,5.66,0,0,0-.93-1.14A2.15,2.15,0,0,0,203,604a7.12,7.12,0,0,1-2.39-.5c-.53-.24-1.19.11-2,1s-1.32,1.56-1.59,1.84a17.4,17.4,0,0,0-1.46,2.14,14.69,14.69,0,0,1-1.59,2.26c-5.83,8.47-10.51,20.62-14,36a135.12,135.12,0,0,0-3.18,21.83c-.35,3.84-1.28,6.45-2.78,7.86s-4.11,2.08-7.82,2c-11-.68-20-2.63-27.05-5.46-5.66-2.13-9.54-6.73-11.66-13.72a30,30,0,0,1-1.06-6.36c-.71-10.35-3.36-27.81-8-53.28a43.5,43.5,0,0,0-5-13.63c-3-5.52-6.19-6.4-9.55-2.75-4.42,4.47-7.87,12.94-10.34,25.19-1.59,8.06-2.74,20.57-3.45,37.18q0,6-1.32,7.21c-.89.83-3.1,1.37-6.63,1.54-2.3.13-5.7-.57-10.21-2.2s-7.12-2.59-7.82-2.74a47.44,47.44,0,0,1-6.89-2.49c-3-1.29-5.22-2.23-6.63-2.78-6.36-2.18-10-6.94-10.87-14-5.13-37.78-7.6-66-7.42-84.8a160.28,160.28,0,0,0-.53-19.09q-.27-8.6-.27-12.57c0-2.66.13-6.71.4-12.18s.4-9.54.4-12.2c.17-4.72,1.23-7.69,3.18-8.95s5.3-1,10.07.74c1.77.52,4.73,1.56,8.89,3.08s7.19,2.57,9.14,3.18a91.3,91.3,0,0,0,9,2.13,14.56,14.56,0,0,1,5,2.11,7.3,7.3,0,0,1,2.66,3.76,21,21,0,0,1,.79,6.29Z"/><path class="cls-1" d="M300.86,522.82c-12.56.74-21.13-6.26-25.72-21.25q-4.25-13.63,6.63-29.47a25.63,25.63,0,0,1,17.63-10.8c7.51-1.19,14.36,1.4,20.55,7.59,7.07,8,9.45,17.39,7.15,28.35-2.47,12.76-7.78,20.46-15.9,23.25Q303.51,523,300.86,522.82ZM329.76,675c.35,7.81-3.1,12.51-10.35,14.15-13.78,3-22.79,4.8-27,6.06q-7.15,1.92-9-6.08a50.46,50.46,0,0,1-1.46-8.65q-.4-4.65-.66-10.5c-.18-3.91-.36-6.91-.53-9V643.78c.17-12.44-.44-33-1.86-63.86-.18-4.83-.18-11.5,0-20.12,0-4.52.62-7.81,1.86-9.82s3.53-3.87,6.89-5.57c6.72-3.19,15.91-5.37,27.57-6.75,3.54-.28,6,.32,7.43,1.82s2.29,4.38,2.65,8.63c.17,2.33.35,10.06.53,22.78.17,4.58.31,12.79.4,24.37s.22,20.21.39,26.19.44,13.41.8,22.16.79,16.57,1.33,23.53c.17.72.4,1.94.66,3.65A29.55,29.55,0,0,1,329.76,675Z"/><path class="cls-1" d="M404.52,514.3c.17,14.07.44,22.83.79,26.63q8.22-11.68,8.49-12c8.66-10.74,18.64-16.35,30-17.1s20.05,2.39,26.25,9.27q11.39,12.53,17.49,33.62c6.54,22.75,9.19,50.49,8,83.49a7.87,7.87,0,0,1-5.57,8q-20.42,8.61-32.88,8.11c-2.83-.15-4.5-.52-5-1.1s-.89-2.37-1.06-5.39c-.89-16-2.48-33.06-4.78-51.45a82.16,82.16,0,0,0-2.91-13.47q-2.39-5.72-7.16-7.58c-5.3-1.74-9.81.15-13.52,5.75a44.34,44.34,0,0,0-6.37,14.33c-5.3,22.79-6.8,40.18-4.5,52.47v1.65c.7,6.24.22,10.55-1.46,13s-5.7,4.69-12.06,6.63c-3,1-7.21,2.38-12.6,4s-9,2.72-10.74,3.25q-10.33,3.09-11.66-6.77c-.18-1.79-.66-5.39-1.46-10.9s-1.28-9.17-1.46-10.92-.62-5.43-1.32-11.11-1.11-9.48-1.2-11.3-.4-5.62-.92-11.5a83.26,83.26,0,0,1-.54-11.73c.18-1.92.18-5.93,0-12.13.18-4.65,0-11.52-.66-20.78s-.39-24.66.66-46.93c.36-5.41,1.37-9.16,3.05-11.18s4.82-3.27,9.42-3.78c1.94-.21,6.09-.34,12.46-.45A70.07,70.07,0,0,0,396,505.41c3-.8,5.17-.51,6.5.89S404.52,510.36,404.52,514.3Z"/><path class="cls-1" d="M624.58,596.9a12.67,12.67,0,0,0,.52-3.51,22.23,22.23,0,0,0-2.65.82,24.83,24.83,0,0,0-2.38,1.27,11.3,11.3,0,0,1-2.12,1.08q-11.15,5.28-19.62,6.83c-17.68,3.09-28.64,4.88-32.88,5.18a48.39,48.39,0,0,1-24.92-4.9Q525.16,596,520.11,578q-1.32-5-1.59-16.28c-.35-10.34,1.5-21.37,5.57-32.87s9.81-21,17.23-28.43c7.25-7.22,17.32-12.67,30.23-16.44,13.61-3.72,26.16-3.46,37.65.29,10.77,3.4,18.47,7.36,23.06,12l4.78,3.36c.88-3.49,1.32-9.32,1.32-17.39,0-1.85-.13-8.09-.4-18.47s-.22-16.28.14-18c.17-3.74.13-9.14-.14-16.14s-.31-11.95-.13-15c0-4.59.35-7.87,1.06-9.87,1.41-4,4.68-6.07,9.81-6.29a91.64,91.64,0,0,1,14,.78,114.17,114.17,0,0,0,13.52.93c3.54-.07,6,.27,7.29,1s2.43,2.3,3.32,4.69a45,45,0,0,1,1.06,4.95c.7,12.07.88,20,.53,23.09a86.88,86.88,0,0,0,.13,14.36c.44,6.35.66,10.23.67,11.5.17,11.61-.36,27-1.59,47-1.95,27.6-3.45,48.37-4.51,59.94-.36,2.09-.75,6.53-1.2,13.44s-.92,12.39-1.45,16.32c-.71,5.37-2,9-3.85,10.82s-5.43,2.81-10.74,3c-11.49.59-22.27,1-32.34,1.14q-10.35.32-9.55-10.86a14.11,14.11,0,0,1,.27-2C624.48,597.66,624.58,597.08,624.58,596.9Zm-61.52-68.62a35.34,35.34,0,0,0-8.21,22.8c0,2.27,0,3.5,0,3.67a18.38,18.38,0,0,0,4.9,10.91,13.32,13.32,0,0,0,9.94,4.32,23.69,23.69,0,0,0,13-3.92,35,35,0,0,0,10.87-11c6.18-9.72,7.68-18.6,4.5-26.91q-4-10.62-15-10.63C575.75,517.53,569.07,521,563.06,528.28Z"/><path class="cls-1" d="M842.77,430.91a6.43,6.43,0,0,1,0,4.47,7.31,7.31,0,0,1-2.92,3.15,16.74,16.74,0,0,1-5.83,2.09c-1.77.38-9,2.34-21.74,6.37-3.54,1.09-6.27.6-8.22-1.47a58.13,58.13,0,0,0-9.28-8.24c-11.31-7.46-19.35-6.07-24.12,4.8a44,44,0,0,0-3.45,15.31v15.17l-.53,0c1.24,12.18,1.85,19.4,1.86,20.82q.26,4.33,5.56,3.65,2.39-.42,7.16-.8c3.19-.24,5.66-.49,7.43-.75,2.82-.33,4.94.33,6.36,2q4.23,5.43,1.32,12.11Q794.78,513.1,789,514c-5.66.86-10.17,1.55-13.52,2-2.65.4-3.8,1.8-3.45,4.23,2.3,10.85,4.95,25,8,43.3a57.16,57.16,0,0,1,1.06,9.27q-.27,6.93-6.9,7.88a181.17,181.17,0,0,0-22,4.21c-9.91,2.4-17.42,4.14-22.54,5-2.12.35-3.62.22-4.51-.41s-1.41-2-1.59-4c-1.41-12.68-2.29-22.43-2.65-29.63-.18-3.91-.71-11.85-1.59-23.37s-1.32-20.11-1.32-26.17q0-9.54.79-18c.17-1.92.27-4.66.27-8.19s.08-6.12.26-7.83a180.42,180.42,0,0,1,5.83-31.61,71.26,71.26,0,0,1,14.06-27.19c10.6-12.83,26.15-18.4,46.66-18.79A74.16,74.16,0,0,1,824.48,405C834.2,410.81,840.29,419.18,842.77,430.91Z"/><path class="cls-1" d="M927.61,566.54a84,84,0,0,0-6.23,5.82c-3.27,3.25-6.23,5.37-8.88,6.27-7.78,2.59-13.79,4.35-18,5q-17.76,2.37-31-11.47c-3-3.08-5.39-5.6-7.16-7.61a86.18,86.18,0,0,1-5.83-7.62,37.33,37.33,0,0,1-4.77-9.24,147.31,147.31,0,0,1-5.84-20.17c-2.82-12.65-4-27.9-3.44-44.81a115.12,115.12,0,0,1,1.72-12.85c1-5.44,1.55-8.92,1.72-10.62.36-3.52,3.19-5.35,8.49-5.52,13.61-.65,23.95-.71,31-.57q6.09.17,9,2.92c2,1.84,2.74,4.42,2.39,7.74-.36,1.44-.84,3.86-1.46,7.29s-1.11,6.52-1.46,9.22a59.92,59.92,0,0,0-.53,7.69,134.73,134.73,0,0,0,3.18,34.66q.27,1.19.93,4.41c.44,2.16.89,4.06,1.33,5.69s.93,3.19,1.46,4.69c1.41,3.21,2.87,5,4.37,5.49s3.4-.38,5.7-2.45a37.07,37.07,0,0,0,9.28-15.4,104.87,104.87,0,0,0,2.92-12.57c.7-4.23,1.46-9.6,2.25-16S920,486,920.19,484.17c.35-2.1.84-5.49,1.46-10.12s1.1-8,1.46-10.31c.52-2.95,1.45-4.83,2.78-5.68s3.93-1,7.82-.31c2.47.33,6.14.71,11,1.17s8.44.91,10.74,1.3q10.86,2,13,10.87a35.23,35.23,0,0,1,1.06,9.11c.18,8.26.27,14.4.27,18.23s-.14,10-.4,18.54-.49,14.95-.66,18.93c-.53,29.28-.71,45.83-.53,47.17q0,6.67-2,10.07a8,8,0,0,1-5.3,4.08,20.73,20.73,0,0,1-8.62-.54l-5.44-.69c-2.56-.34-4.46-.63-5.7-.94-9-1.87-13.61-7.17-13.78-16.12C927.35,578.59,927.43,574.39,927.61,566.54Z"/><path class="cls-1" d="M1044.53,404c-.18,10.78.13,25.92.93,45.77s1.19,33.8,1.19,41.53v80c.17,2,.71,17.91,1.59,47.75.17,4,.27,6.07.27,6.25-.18,3.61-1.11,5.68-2.79,6.24s-4.29-.25-7.82-2.33c-6.19-3.85-15.38-7.67-27.57-10.7-3.36-.81-5.79-2.08-7.29-3.85s-2.35-4.46-2.52-8c-.18-2-.44-8.57-.8-19.55-.71-28.93-1.06-42.74-1.06-43-1.94-41.52-2.92-73.55-2.91-98.34,0-2.7-.14-9.19-.4-19.22s-.23-16.16.13-18.74c.17-5,1.15-8.24,2.92-9.79s5.65-2.56,11.66-3.1c.71-.15,7-.86,18.83-2.45,2.29-.16,3.53-.25,3.71-.25a17.82,17.82,0,0,1,7.16.77,6.78,6.78,0,0,1,3.84,3.65A15.91,15.91,0,0,1,1044.53,404Z"/><path class="cls-1" d="M333.2,859.57a6.3,6.3,0,0,1-1.19-1.06,7.57,7.57,0,0,0-1.33-1.15,8.66,8.66,0,0,1-1.32-1.05,5.25,5.25,0,0,0-1.72-1,18,18,0,0,0-2.39-.7c.53,3.78,2.39,12.09,5.57,24.11a43.18,43.18,0,0,0,4,10.24c3.36,5.57.44,9.13-8.75,10.63-2.65.46-10.51,1.58-23.59,3.2q-9,1-12.73,1.27a18.25,18.25,0,0,1-4.24-.15,8,8,0,0,1-2.79-1.07,6.07,6.07,0,0,1-2-2.15,13,13,0,0,1-1.86-6.58c-.53-5.55-1.77-15.55-3.71-31.78S272,832.1,271.43,822a503.82,503.82,0,0,1,0-51.87c.17-3,.17-8.9,0-18.11s0-15.62.53-18.83c.7-4.57,1.23-7.67,1.59-9.22a11.51,11.51,0,0,1,3.05-5.7,9.63,9.63,0,0,1,6-2,88.8,88.8,0,0,0,24.66-5,13.08,13.08,0,0,1,7.16-.8,8.78,8.78,0,0,1,5.17,3.15,11.46,11.46,0,0,1,2.25,6.55c.53,3.7.71,10.51.53,20.12,0,6.6-.09,18-.26,33.33s-.27,26.4-.27,34.05c0,.28.35,3.52,1.06,9.51a12.46,12.46,0,0,0,2.65-1,13.18,13.18,0,0,0,2-1.16c.44-.33,1.1-.89,2-1.7l1.86-1.7,4.77-4.32c2.65-2.41,4.41-4,5.3-4.8s2.52-2.22,4.91-4.4,4.19-3.77,5.43-4.77,3-2.49,5.17-4.49,4.06-3.62,5.57-4.85,3.26-2.67,5.3-4.32,4-3.19,6-4.62,3.88-2.87,5.83-4.33c3.89-2.91,7.11-4.4,9.68-4.41s4.9,1.54,7,4.62a51.31,51.31,0,0,0,3.45,4.32c1.41,1.63,2.61,3.09,3.58,4.4s2.07,2.78,3.31,4.43a30,30,0,0,1,2.92,4.6,33.72,33.72,0,0,1,2,4.53,9.61,9.61,0,0,1,.53,3.73,12.42,12.42,0,0,1-.66,3.23,9.26,9.26,0,0,1-2.13,3.13c-1.06,1.1-2,2.06-2.91,2.89s-2.12,1.91-3.71,3.22c-1.24.92-9.37,7-24.4,17a6,6,0,0,1-.92.65,3.26,3.26,0,0,1-1.2.48c-2.82,2.22-4.33,3.7-4.5,4.49s.88,2.18,3.18,4.14c.88.8,12.1,10,33.67,28.52a16.52,16.52,0,0,1,4.24,5.25,6.35,6.35,0,0,1,.4,4.51,8.86,8.86,0,0,1-3.58,3.91c-9.54,6.12-16.8,10.34-21.74,13.15-4.07,2.14-7.38,3.07-9.94,2.89s-5.53-1.52-8.89-4c-5.12-3.87-12.15-9.73-21.07-17.65S334.08,860.4,333.2,859.57Z"/><path class="cls-1" d="M459.93,769q-18.82,4.19-25.72-10.45c-2.83-5.92-.62-13.3,6.63-22.42q6.38-7.81,17.63-11.71c7.51-2.58,14.36-2.32,20.55.86,7.07,4.32,9.46,10.92,7.16,19.66-2.48,10.14-7.78,16.94-15.91,20.47Q462.58,768.71,459.93,769Zm28.9,118.68q.53,10.21-10.34,11.29c-13.79,1.28-22.8,2.23-27,3-4.77.74-7.78-1-9-5.2a31.67,31.67,0,0,1-1.45-6.75c-.27-2.4-.49-5.09-.67-8.09s-.35-5.29-.53-6.86V862c.18-9.4-.44-24.93-1.85-47.39-.18-3.52-.18-8.41,0-14.72q0-4.95,1.85-7.46t6.9-5.21q10.06-5.16,27.57-9.5c3.53-.77,6-.7,7.42.24s2.3,3,2.65,6.29c.18,1.79.36,7.75.53,17.76.18,3.59.31,10.07.4,19.36s.22,16.33.4,21.23.44,11,.79,18.33.8,14,1.33,19.95c.18.62.4,1.68.66,3.17A21.4,21.4,0,0,1,488.83,887.72Z"/><path class="cls-1" d="M620.33,876.38a16,16,0,0,0,.53-4,17.62,17.62,0,0,0-2.65.3,19.28,19.28,0,0,0-2.39.9,8.26,8.26,0,0,1-2.12.72,58.71,58.71,0,0,1-19.62,2.83c-17.67-1-28.63-1.73-32.87-2.4a62.26,62.26,0,0,1-24.92-10.3c-10.26-7-17.07-16.23-20.42-28-.89-3.27-1.42-8.45-1.59-15.57-.35-9.8,1.5-20.08,5.57-31.1a80,80,0,0,1,17.23-28.12c7.25-7.49,17.32-13.68,30.23-18.43,13.6-4.72,26.15-5.21,37.64-1.05,10.78,3.77,18.47,8.68,23.07,14.54.17.16,1.77,1.57,4.77,4.31.88-4.26,1.32-11.46,1.33-21.48,0-2.3-.14-10-.4-23s-.22-20.29.13-22.44c.18-4.7.14-11.48-.13-20.24s-.31-15-.13-18.85c0-5.8.35-10,1.06-12.72q2.11-8.07,9.81-10.28a66,66,0,0,1,14-2.1A96,96,0,0,0,672,628.36c3.53-.81,6-.81,7.29,0s2.43,2.79,3.31,6c.53,2.79.89,5.09,1.07,6.88.7,17,.88,28.13.53,32.54a169.29,169.29,0,0,0,.13,20.05c.44,8.8.66,14.16.66,15.92.17,16.05-.35,37.2-1.59,64.13-1.95,37-3.45,64-4.51,78.93-.35,2.66-.75,8.39-1.19,17.28s-.93,15.86-1.46,20.81c-.71,6.76-2,11.06-3.84,12.87s-5.44,2-10.74.69q-17.24-4-32.34-8.17c-6.9-1.8-10.08-7-9.55-15.6a18.18,18.18,0,0,1,.27-2.32C620.24,877.26,620.33,876.59,620.33,876.38Zm-61.51-86.23a36,36,0,0,0-8.22,23.12V817a22.05,22.05,0,0,0,4.91,11.84,15.76,15.76,0,0,0,9.94,5.9,20.21,20.21,0,0,0,13-2.24A28.8,28.8,0,0,0,589.31,822c6.19-10,7.69-20.11,4.51-29.77-2.65-8.24-7.65-12.45-15-12.74S564.83,782.84,558.82,790.15Z"/><path class="cls-1" d="M805.12,869.2a79.13,79.13,0,0,1-17,18.87q-9,6.95-15.91,7c-13.44-.42-25-3.16-34.73-8a109,109,0,0,1-27.84-20.69c-4.95-4.84-6-10.42-3.18-16.91q9.27-21.55,23.59-33.74c2.83-2.68,5.74-2.81,8.75-.31,9.55,7.23,16.88,12.09,22,14.15,6.71,2.71,10.6,2.1,11.66-1.93.18-.93.31-1.87.4-2.81a7.3,7.3,0,0,0-.27-2.78c-.26-.91-.49-1.6-.66-2.06a10.76,10.76,0,0,0-1.19-2c-.62-.89-1.06-1.51-1.33-1.85L768,814.25a51,51,0,0,0-21.2-15.32c-8.85-3.57-16-7.43-21.48-11.68a52.65,52.65,0,0,1-17-24.17A57.86,57.86,0,0,1,706,732.56a48.54,48.54,0,0,1,5.56-14.85q15.38-27.78,39.24-36.82c14.32-5.35,27-2.8,37.92,7.93,9.89,9.63,17.67,23.49,23.33,41.93a8.44,8.44,0,0,1-2.92,9.46c-2.48,2-9.46,6.48-20.94,13.68-3.19,2.15-5.84,1.1-8-3.1-4.07-8.19-8.93-14-14.58-17.51-5.13-3.12-9.81-2.42-14,2-4.07,4.44-5,9.39-2.92,14.94a17.46,17.46,0,0,0,8,8.91q7.7,4.85,15.91,9.23c10.43,5.68,20.33,14.44,29.7,26.51,7.24,9.63,11.48,23.36,12.72,41.49C815.64,847.6,812.37,858.57,805.12,869.2Z"/><path class="cls-1" d="M482.83,354.1s.68,7.89,4.12,7.39a8.46,8.46,0,0,0-2.89-8.5s8.22,6.75,10.38,4c0,0,.06-4.2-9.05-6.2,0,0-1.19-6.29-6.37-8.31,0,0-1.3,3.2,2.92,8,0,0-8.88-3.55-10.1-3.11s1.65,4.67,8.32,5.39c0,0-5.07,6.26-6.42,6.82S477.5,362.21,482.83,354.1Z"/><path class="cls-1" d="M555.46,339.67s7.95.15,7.82-3.33a8.48,8.48,0,0,0-8.79,2s7.6-7.5,5.07-9.95c0,0-4.19-.5-7.15,8.38,0,0-6.41.53-9,5.48,0,0,3,1.63,8.27-2.08,0,0-4.48,8.49-4.17,9.76s4.84-1.15,6.26-7.73c0,0,5.72,5.73,6.13,7.13S563,345.85,555.46,339.67Z"/><path class="cls-1" d="M497.28,272.82a14.44,14.44,0,0,0-7.15,12,5.38,5.38,0,0,0,.22,1.83,6.91,6.91,0,0,0,2.52,2.94c1.9,1.52,3.95,3.1,6.39,3.36,3,.31,5.77-1.44,7.87-3.51a9.79,9.79,0,0,0,2.52-3.64,11.37,11.37,0,0,0,.47-3.08c.16-2.94,0-6.37-2.45-8.12a9.94,9.94,0,0,0-2.79-1.22c-2.6-.82-5.66-1.58-7.88,0"/><path class="cls-1" d="M459.88,337.77s-4-4-8.91-4.44c0,0,1,3.85,7.13,5.92,0,0-6-.48-8.46,4.65a22.2,22.2,0,0,0,9.72-3.17,14.2,14.2,0,0,0-1.83,11.65s3.31-2.83,3.09-11.2c0,0,4.09,5.19,9.71,4.49,0,0,.76-2.49-7.51-5.38,0,0,8.69-3.4,8.94-6.74,0,0-7.27.37-10.28,3.7,0,0,2.39-7.62-.94-11.77C460.54,325.48,457,328.07,459.88,337.77Z"/><path class="cls-1" d="M524.5,350.36s-5.46-1.4-9.93.75c0,0,2.82,2.8,9.16,1.43,0,0-5.42,2.67-4.88,8.32a22.2,22.2,0,0,0,6.72-7.69A14.2,14.2,0,0,0,530,364.1s1.39-4.12-3.08-11.2c0,0,6.17,2.37,10.64-1.12,0,0-.62-2.52-9.21-.76,0,0,5.73-7.38,4.24-10.37,0,0-6.07,4-6.94,8.44,0,0-1.85-7.78-6.84-9.63C518.77,339.46,517.05,343.5,524.5,350.36Z"/><path class="cls-1" d="M459.8,299.26s-5.77-5.33-5-10.07c0,0,3.42.59,6.71,9.55,0,0,1.36-8.29,6-9.4,0,0-1.7,7.4-3.18,9.4a12.92,12.92,0,0,1,9.24,1.62s.53,1.79-10.13,1.35c0,0,5.06,3,7,7.6,0,0-4.1-.2-9-6.79,0,0,1,6.81-.72,9.18,0,0-1.48-1.63-1.77-8.07,0,0-9-1.33-9.93-3.78C449.06,299.85,457.58,299.11,459.8,299.26Z"/><path class="cls-1" d="M625,219.92s5.68-2.15,8.7,0c0,0-1.59,2.17-8.92,1.34,0,0,5.26,3.81,4.42,7.42,0,0-4.53-3.74-5.4-5.45a10,10,0,0,1-4.31,5.82s-1.42-.24,2.57-7.46c0,0-3.81,2.46-7.68,2.22,0,0,1.55-2.77,7.79-3.85,0,0-5.05-1.67-6.1-3.67,0,0,1.63-.46,6.19,1.56,0,0,4-5.73,6-5.55C628.32,212.3,625.89,218.44,625,219.92Z"/><path class="cls-1" d="M429.44,319.26s1.26-7,4.66-8.67c0,0-1.85,9.48,0,10.22,0,0,6.3.22,8.37,2.22a22.87,22.87,0,0,1-10.59.52s6.14,4.54,7,8.56c0,0-4.74-.41-7.92-7,0,0,.43,11.18.14,13,0,0-4.76-5-2.66-14l.22-1s-7.92.14-11-2.56c0,0,3.41-1.63,9.35-.11l.58.15s-6.38-6-6.63-10.54C421,310.05,424.55,309.93,429.44,319.26Z"/><path class="cls-1" d="M434.1,320.81a166.53,166.53,0,0,1,57.32-32.88s-2-1.89-.69-3.39c0,0-23.45,7.54-58.85,34.35A8,8,0,0,0,434.1,320.81Z"/><path class="cls-1" d="M427.14,292.52s8.15-13.92,64.28-8.88l.65-3.07s-49.52-5.38-65.67,9.29Z"/><path class="cls-1" d="M423.44,293.12s-6.07-6.82-2.07-10.82c0,0,1.63,6.67,3.11,6.52,0,0,.75-7.68,4.22-8.73,0,0-.67,7.1-2.3,9.77l.74,2.66s7.44-2.51,11.42.67c0,0-2.76,1.12-11.13,1.23h-1s2.82,7.58,4.89,7.61c0,0-5.92.12-6.21-7.14,0,0-6.46,5-9.82,2.05A37.17,37.17,0,0,1,423.44,293.12Z"/><path class="cls-1" d="M428.48,255.79s4.28-10.95,10.73-5.7c0,0-7,1.07-6.78,5.09l-.25,2.24s6.66,3.85,7,8.59c0,0-7.41-3.85-10.22-7.41,0,0,3.32,10.78-.93,13,0,0-2.77-8.72-1.14-12.27,0,0-8.8,7.49-13.73,7.07,0,0,6.71-7.69,11.33-8.42,0,0-11.44,0-12.69-1.37,0,0,9.84-4,13.9.05,0,0-3.81-7.77-2.87-12.4A23.88,23.88,0,0,1,428.48,255.79Z"/><path class="cls-1" d="M472.8,212.07s6.48,2.83,7.35,6.53c0,0-8.79-4-9.94-2.35,0,0-1.67,6.07-4.09,7.63a22.82,22.82,0,0,1,1.94-10.43s-5.83,4.93-9.94,4.8c0,0,1.5-4.51,8.64-6.09,0,0-11-2.16-12.71-2.87,0,0,5.94-3.49,14.23.64l1,.46s1.68-7.75,5-10.08c0,0,.81,3.69-2,9.13l-.28.52s7.29-4.83,11.79-4C483.72,205.93,483,209.46,472.8,212.07Z"/><path class="cls-1" d="M510.62,200.65s-7.31.8-9.05,4.47c0,0,3.81,1,9.37-2.32,0,0,.65,8.11,0,9.44,0,0,2.32-2,3.25-9.42,0,0,5.94,2.66,9.6.82,0,0-1.34-2.5-9.11-2.95,0,0,7-1.79,7.93-6.95,0,0-7.38,2.51-8.82,5.84,0,0,2.68-6.07.95-10.14a14.94,14.94,0,0,0-2.95,10.14s-2.22-5.56-8.17-6C503.66,193.58,504.63,197.16,510.62,200.65Z"/><path class="cls-1" d="M657.42,182.89s-4.38-4.3-7.67-3.48c0,0,1.36,3,6.45,4.82,0,0-4.9,4.7-6.08,5,0,0,2.5.45,7.81-2.89,0,0,1.41,5.25,4.53,6.64,0,0,.91-2.19-2.91-7.44,0,0,4.85,3.56,8.68,1.45,0,0-5.52-3.44-8.43-2.61,0,0,5.33-1.48,7.05-4.75a12.49,12.49,0,0,0-8.11,3.45s2.42-4.36-.43-8.44C658.31,174.66,656.51,177.18,657.42,182.89Z"/><path class="cls-1" d="M431,257.42s13.29-3.46,61.08,23.15l1.76-2.9s-49.21-24.1-63.28-22.32Z"/><path class="cls-1" d="M444.43,230s45.23,40.47,49.08,47.15l1.54-2.47s-42.84-43.61-47.52-46.1S444.43,230,444.43,230Z"/><path class="cls-1" d="M466.66,248.4c.6-.89,1.28-1.72,2-2.55l5.07-6.2a3,3,0,0,1,.93-.84,1,1,0,0,1,1.16.21c.33.46,0,1.09-.29,1.55-2.24,3.37-4.47,6.74-7,9.88a15.92,15.92,0,0,1,11.23-2.56,3.18,3.18,0,0,1-1.43,2.45,7.45,7.45,0,0,1-2.72,1,20.48,20.48,0,0,1-5.58.38,24.43,24.43,0,0,1-.89,10.94.51.51,0,0,1-.13.24.5.5,0,0,1-.38.09,2.09,2.09,0,0,1-1.63-1.41,6,6,0,0,1-.26-2.23l0-8c-3.12,3.15-6.43,6.41-10.68,7.69a.62.62,0,0,1-.33,0,.53.53,0,0,1-.27-.22,1.59,1.59,0,0,1,0-1.54,3.84,3.84,0,0,1,1-1.2,35.58,35.58,0,0,1,3.16-2.32l5.69-3.9a30.13,30.13,0,0,1-4.92-1.27c-2.52-.8-5.17-1.68-6.92-3.66a2.41,2.41,0,0,1,2.11-.63,21.15,21.15,0,0,1,10.62,3.46,16.12,16.12,0,0,1-1.91-9.65c.09-.77.41-1.71,1.18-1.8a1.22,1.22,0,0,1,1.15.67,3.26,3.26,0,0,1,.36,1.35,33.17,33.17,0,0,1-.19,9.12"/><path class="cls-1" d="M438.65,228.31l-9.87-3.87c-.37-.14-.82-.48-.62-.82a.61.61,0,0,1,.23-.22,6.49,6.49,0,0,1,5.6-.35,19,19,0,0,1,5,3c-.32-3.79-3.39-7-3.21-10.85,1.7.29,2.64,2.09,3.28,3.68q1.39,3.44,2.6,6.95a38.92,38.92,0,0,1,3.5-7.34,13.18,13.18,0,0,1,6.09-5.21,72.08,72.08,0,0,1-7.77,12.84,108.24,108.24,0,0,1,13.16,2.1c.5.12,1.13.39,1.1.9s-.75.72-1.3.73a86.21,86.21,0,0,1-12.12-.55c2.58,3.29,2.33,7.9,2,12.06a31.06,31.06,0,0,1-5.53-12,86.19,86.19,0,0,0-8.45,7.28c-.84.85-1.78,1.8-3,1.81-.17-2.2,1.42-4.12,3-5.62a37.65,37.65,0,0,1,5.89-4.48"/><path class="cls-1" d="M502.59,273.11A138.72,138.72,0,0,1,501,253a104.12,104.12,0,0,1,.92-11.29c1.51-11.94,4.05-23.8,8.43-34.84.66-1.66,1.22-4-.13-5a131.78,131.78,0,0,0-10.81,69.46,4.29,4.29,0,0,0,.76,2.34,1.18,1.18,0,0,0,1.95-.1"/><path class="cls-1" d="M470.5,215.16c2.29,8.33,6.93,15.79,10.74,23.54,5.93,12,10,25,16.7,36.62.8-.63.45-1.9,0-2.83L483.2,239q-4.31-9.72-8.61-19.44a15.25,15.25,0,0,0-3.32-5.37"/><path class="cls-1" d="M534.45,314.6a24.65,24.65,0,0,1,1.65-2.16l4.29-5.25a2.36,2.36,0,0,1,.8-.71.8.8,0,0,1,1,.17c.29.39,0,.92-.24,1.32-1.89,2.85-3.79,5.7-5.93,8.37a13.45,13.45,0,0,1,9.51-2.17,2.68,2.68,0,0,1-1.21,2.07,6.1,6.1,0,0,1-2.3.89,17.46,17.46,0,0,1-4.73.32,20.51,20.51,0,0,1-.76,9.27.42.42,0,0,1-.1.2.41.41,0,0,1-.33.08,1.79,1.79,0,0,1-1.37-1.2,5.2,5.2,0,0,1-.23-1.89l0-6.75c-2.65,2.67-5.45,5.43-9,6.51a.45.45,0,0,1-.28,0,.48.48,0,0,1-.23-.19,1.36,1.36,0,0,1,0-1.3,3.56,3.56,0,0,1,.88-1c.85-.71,1.76-1.34,2.67-2l4.83-3.3a26.34,26.34,0,0,1-4.17-1.08c-2.13-.67-4.38-1.42-5.86-3.1a2.07,2.07,0,0,1,1.79-.53,17.9,17.9,0,0,1,9,2.93,13.75,13.75,0,0,1-1.62-8.17c.08-.66.35-1.45,1-1.53a1,1,0,0,1,1,.57,2.8,2.8,0,0,1,.3,1.14,28.12,28.12,0,0,1-.16,7.72"/><path class="cls-1" d="M568.89,317.87s-7.08,0-9.35-3.08c0,0,9.66.17,10.06-1.79,0,0-.88-6.23.73-8.63a23,23,0,0,1,2.36,10.34s3.39-6.83,7.21-8.34c0,0,.42,4.73-5.51,9,0,0,10.93-2.38,12.8-2.42,0,0-4.06,5.56-13.31,5.06l-1.06,0s1.53,7.77-.6,11.23c0,0-2.21-3.07-1.75-9.18,0-.2,0-.39,0-.59,0,0-4.77,7.32-9.22,8.37C561.3,327.83,560.55,324.31,568.89,317.87Z"/><path class="cls-1" d="M579.15,216.72s2.09,7.41,6.19,8.58c0,0,.38-4.11-4-9.28,0,0,8.27-2.07,9.75-1.68,0,0-2.44-2.05-10.3-1.72,0,0,1.73-6.6-.8-10.06,0,0-2.36,1.81-1.48,9.92,0,0-3.06-6.9-8.55-7,0,0,3.86,7.2,7.55,8.11,0,0-6.73-1.72-10.64.77a15.64,15.64,0,0,0,11,1.3s-5.36,3.25-4.79,9.47C573.05,225.13,576.58,223.51,579.15,216.72Z"/><path class="cls-1" d="M589.42,260.82s-4-4-8.9-4.44c0,0,1,3.85,7.13,5.92,0,0-6-.48-8.46,4.65a22.27,22.27,0,0,0,9.72-3.16,14.17,14.17,0,0,0-1.83,11.64s3.31-2.83,3.09-11.2c0,0,4.09,5.2,9.71,4.49,0,0,.76-2.48-7.52-5.38,0,0,8.7-3.4,8.95-6.73,0,0-7.28.36-10.28,3.69,0,0,2.39-7.62-.94-11.77C590.09,248.53,586.54,251.12,589.42,260.82Z"/><path class="cls-1" d="M503,291.19s16.44,31.4,19.84,52.43l3.25,7.36s-2.58-24.54-12.58-44.09l-10-19.55Z"/><path class="cls-1" d="M508.16,286.15s42.3,10.4,60.92,30.6l1.14-3.64s-21.62-19.11-62.06-29Z"/><path class="cls-1" d="M536.15,319.48s14.37,15.85,15.26,18.07l2.67-.3s-11.26-15.16-16.82-19.8Z"/><path class="cls-1" d="M504.61,289.45s27.31,25.09,28.68,26.33c0,0,15.66,9.85-26.2-27.26l-1.24.62"/><path class="cls-1" d="M600.77,223.09c-2.69,13.13-8.3,25.57-10.43,38.8a12,12,0,0,0,2.69-4.6,210.47,210.47,0,0,0,9.68-31.42,3.61,3.61,0,0,0,0-2.18c-.29-.68-1.23-1.12-1.8-.65"/><path class="cls-1" d="M611.55,193.43s11.1,19.11,9.62,25.18l2.52,1s.89-8.15-9.48-26.66A1.7,1.7,0,0,0,611.55,193.43Z"/><path class="cls-1" d="M526.38,253.79s37.6-41.38,51.46-38.13c0,0-14.8,7.69-22.8,14.14,0,0-23.8,21.43-26.56,26.15C528.48,256,524.54,256.22,526.38,253.79Z"/><path class="cls-1" d="M657.16,185.29s-7.4,10-6.22,21.27c0,0,1.49,2,2.23-4.54s3.89-13.54,4.76-15.66S657.16,185.29,657.16,185.29Z"/><path class="cls-1" d="M495.88,290.92c1.15,6.53-1.44,13.06-2.29,19.64-.25,1.92-.35,3.85-.66,5.76s-.73,3.49-1.18,5.21l-3.12,11.93a84.11,84.11,0,0,1-3.48,11.14c-.9,2.16-2,4.29-2.23,6.62-.06.59,0,1.34.61,1.52s1.05-.35,1.37-.83a31.91,31.91,0,0,0,3.27-7.47c.68-2,1.37-4,2-6a200.82,200.82,0,0,0,9.08-46.57,2.15,2.15,0,0,0-.11-1.07,1.49,1.49,0,0,0-1.88-.58,4.53,4.53,0,0,0-1.63,1.39"/><path class="cls-1" d="M461,337c.16-2.47,1.48-4.68,2.77-6.75q8.67-14,18-27.44c1.22-1.77,2.46-3.54,3.78-5.24A118.34,118.34,0,0,1,494.1,288a1.52,1.52,0,0,1,.39-.33c.59-.27,1.24.44,1.22,1.12a3.19,3.19,0,0,1-.87,1.78c-12,15.3-22.21,32.1-33.46,48a12,12,0,0,1,.55-6.56"/><path class="cls-1" d="M499.27,291.83S510.05,408,494.39,479c0,0,2.47,11.72,6.22-17.77s6.63-48,2.37-170.06Z"/></svg>